<?xml version="1.0" encoding="UTF-8"?>
<svg xmlns="http://www.w3.org/2000/svg" xmlns:xlink="http://www.w3.org/1999/xlink" width="640" height="320" viewBox="0 0 640 320">
<path fill-rule="nonzero" fill="rgb(100%, 33.333334%, 33.333334%)" fill-opacity="1" d="M 57.890625 258.515625 L 57.890625 115.703125 L 89.609375 115.703125 L 89.609375 131.484375 L 105.546875 131.484375 L 105.546875 147.421875 L 121.328125 147.421875 L 121.328125 131.484375 L 137.265625 131.484375 L 137.265625 115.703125 L 168.984375 115.703125 L 168.984375 258.515625 L 137.265625 258.515625 L 137.265625 179.140625 L 121.328125 179.140625 L 121.328125 195.078125 L 105.546875 195.078125 L 105.546875 179.140625 L 89.609375 179.140625 L 89.609375 258.515625 Z M 184.882812 242.578125 L 184.882812 179.140625 L 200.820312 179.140625 L 200.820312 163.203125 L 280.195312 163.203125 L 280.195312 179.140625 L 295.976562 179.140625 L 295.976562 210.859375 L 216.601562 210.859375 L 216.601562 242.578125 L 264.257812 242.578125 L 264.257812 226.796875 L 295.976562 226.796875 L 295.976562 242.578125 L 280.195312 242.578125 L 280.195312 258.515625 L 200.820312 258.515625 L 200.820312 242.578125 Z M 216.601562 179.140625 L 216.601562 195.078125 L 264.257812 195.078125 L 264.257812 179.140625 Z M 57.890625 99.765625 "/>
<path fill-rule="nonzero" fill="rgb(89.803922%, 26.666668%, 29.803923%)" fill-opacity="1" d="M 253.28125 112.539062 C 252.421875 114.53125 250.78125 115.507812 248.28125 115.507812 C 245.78125 115.507812 244.101562 114.492188 243.28125 112.382812 L 235.78125 91.914062 L 235.78125 120.351562 C 235.46875 123.476562 233.945312 125.039062 231.25 125.039062 L 221.71875 125.039062 C 218.59375 125.039062 217.03125 123.476562 217.03125 120.351562 L 217.1875 73.320312 C 217.1875 70.3125 218.671875 68.789062 221.71875 68.789062 L 234.21875 68.789062 L 234.21875 68.945312 C 235.859375 69.179688 237.226562 70.15625 238.28125 71.914062 L 248.28125 98.632812 L 258.4375 71.914062 C 258.945312 70.351562 260.039062 69.375 261.71875 68.945312 L 265.46875 68.945312 C 268.59375 69.0625 270.15625 70.585938 270.15625 73.476562 L 270.15625 120.507812 C 270.15625 123.554688 268.59375 125.039062 265.46875 125.039062 C 262.34375 125.039062 260.78125 123.632812 260.78125 120.820312 L 260.78125 92.382812 Z M 316.640625 92.070312 C 319.765625 92.070312 321.328125 93.710938 321.328125 96.914062 C 321.328125 100.039062 319.765625 101.601562 316.640625 101.601562 L 288.828125 101.601562 L 288.828125 115.820312 L 316.640625 115.976562 C 319.84375 115.898438 321.484375 117.382812 321.484375 120.507812 C 321.484375 123.554688 319.921875 125.039062 316.796875 125.039062 L 284.296875 125.039062 C 281.171875 125.039062 279.609375 123.476562 279.609375 120.351562 L 279.609375 96.914062 C 279.609375 93.789062 281.171875 92.226562 284.296875 92.226562 L 284.296875 73.632812 C 284.296875 70.625 285.859375 69.101562 288.984375 69.101562 L 316.796875 68.945312 C 319.921875 68.945312 321.484375 70.625 321.484375 73.945312 C 321.484375 76.875 319.921875 78.320312 316.796875 78.320312 L 302.890625 78.320312 L 302.890625 92.070312 Z M 349.296875 115.507812 L 363.203125 115.664062 L 363.203125 110.976562 C 363.203125 108.085938 364.765625 106.5625 367.890625 106.445312 C 371.015625 106.5625 372.578125 108.085938 372.578125 110.976562 L 372.578125 120.507812 C 372.578125 123.554688 371.015625 125.039062 367.890625 125.039062 L 335.234375 125.039062 C 332.1875 125.039062 330.703125 123.554688 330.703125 120.507812 L 330.546875 73.476562 C 330.546875 70.351562 332.109375 68.789062 335.234375 68.789062 L 344.765625 68.789062 C 347.460938 68.789062 348.984375 70.351562 349.296875 73.476562 Z M 380.585938 124.882812 C 379.101562 124.882812 378.398438 124.101562 378.398438 122.539062 C 378.398438 122.03125 378.476562 121.601562 378.710938 121.289062 L 378.554688 121.132812 L 388.085938 81.289062 L 389.648438 74.570312 L 390.117188 72.695312 C 390.742188 70.3125 392.148438 69.101562 394.335938 69.101562 C 394.53125 69.101562 394.804688 69.101562 395.117188 69.101562 L 410.429688 69.101562 C 410.625 69.101562 410.898438 69.101562 411.210938 69.101562 C 413.398438 69.101562 414.726562 70.3125 415.273438 72.695312 L 415.742188 74.570312 L 427.148438 121.132812 C 427.226562 121.5625 427.304688 122.070312 427.304688 122.695312 C 427.304688 124.257812 426.523438 125.039062 424.960938 125.039062 L 412.773438 125.039062 C 412.539062 125.039062 412.304688 125.039062 411.992188 125.039062 C 409.882812 125.039062 408.554688 123.867188 407.929688 121.445312 L 398.085938 81.289062 L 388.710938 121.289062 C 388.085938 123.710938 386.679688 124.882812 384.492188 124.882812 Z M 402.929688 120.351562 C 402.695312 123.476562 401.210938 125.039062 398.398438 125.039062 C 395.273438 125.039062 393.710938 123.554688 393.710938 120.507812 L 393.554688 110.976562 C 393.554688 107.96875 395.117188 106.445312 398.242188 106.445312 C 401.132812 106.445312 402.695312 108.007812 402.929688 111.132812 Z M 467.421875 97.382812 L 463.671875 112.851562 L 462.109375 119.570312 L 461.640625 121.445312 C 461.210938 123.320312 460.273438 124.492188 458.828125 124.882812 L 458.828125 125.039062 L 446.484375 125.039062 C 446.25 125.039062 446.015625 125.039062 445.703125 125.039062 C 443.59375 125.039062 442.265625 123.867188 441.640625 121.445312 L 441.171875 119.570312 L 429.765625 73.007812 C 429.648438 72.617188 429.609375 72.070312 429.609375 71.445312 C 429.609375 69.882812 430.390625 69.101562 431.953125 69.101562 L 444.140625 69.101562 C 444.335938 69.101562 444.609375 69.101562 444.921875 69.101562 C 447.109375 69.101562 448.4375 70.3125 448.984375 72.695312 L 456.328125 102.382812 L 462.421875 76.289062 L 463.203125 72.851562 C 463.710938 70.585938 464.960938 69.375 466.953125 69.257812 L 467.890625 69.257812 C 469.84375 69.375 471.09375 70.585938 471.640625 72.851562 L 472.421875 76.289062 L 478.359375 101.757812 L 485.234375 72.851562 C 485.859375 70.46875 487.1875 69.257812 489.296875 69.257812 L 493.203125 69.257812 C 494.765625 69.257812 495.546875 70.039062 495.546875 71.601562 C 495.546875 72.148438 495.429688 72.539062 495.234375 72.851562 L 495.234375 73.007812 L 485.703125 112.851562 L 484.140625 119.570312 L 483.671875 121.445312 C 483.242188 123.242188 482.34375 124.375 481.015625 124.882812 L 481.015625 125.039062 L 475.859375 125.039062 L 475.859375 124.882812 C 474.492188 124.375 473.59375 123.242188 473.203125 121.445312 L 472.734375 119.570312 L 471.171875 112.851562 Z M 512.460938 101.132812 L 499.335938 76.289062 C 498.90625 75.46875 498.710938 74.648438 498.710938 73.789062 C 498.710938 72.148438 499.6875 70.820312 501.679688 69.882812 C 502.5 69.375 503.320312 69.101562 504.179688 69.101562 L 511.679688 68.945312 C 513.125 68.945312 514.335938 69.84375 515.273438 71.601562 L 524.804688 90.507812 L 534.960938 71.445312 C 535.898438 69.6875 537.148438 68.789062 538.710938 68.789062 C 539.414062 68.789062 540.273438 69.023438 541.210938 69.414062 C 543.085938 70.46875 544.023438 71.835938 544.023438 73.476562 C 544.023438 74.21875 543.867188 75.039062 543.554688 75.976562 L 531.054688 100.507812 L 531.054688 120.507812 C 530.742188 123.554688 529.21875 125.039062 526.523438 125.039062 L 516.992188 125.039062 C 513.945312 125.039062 512.460938 123.554688 512.460938 120.507812 Z M 212.5 37.265625 "/>
<path fill-rule="nonzero" fill="rgb(58.823532%, 77.254903%, 96.470588%)" fill-opacity="1" d="M 353.046875 225.585938 L 366.953125 225.742188 L 366.953125 221.054688 C 366.953125 218.164062 368.515625 216.640625 371.640625 216.523438 C 374.765625 216.640625 376.328125 218.164062 376.328125 221.054688 L 376.328125 230.585938 C 376.328125 233.632812 374.765625 235.117188 371.640625 235.117188 L 338.984375 235.117188 C 335.9375 235.117188 334.453125 233.632812 334.453125 230.585938 L 334.296875 183.554688 C 334.296875 180.429688 335.859375 178.867188 338.984375 178.867188 L 348.515625 178.867188 C 351.210938 178.867188 352.734375 180.429688 353.046875 183.554688 Z M 408.828125 230.585938 C 408.59375 233.632812 407.148438 235.117188 404.453125 235.117188 L 394.921875 235.117188 C 391.796875 235.117188 390.234375 233.632812 390.234375 230.585938 L 390.234375 183.710938 C 390.234375 180.585938 391.71875 179.023438 394.765625 179.023438 L 404.609375 179.023438 C 407.304688 179.140625 408.75 180.703125 408.984375 183.710938 Z M 431.914062 191.367188 L 431.914062 230.898438 C 431.914062 233.710938 430.351562 235.117188 427.226562 235.117188 C 424.101562 235.117188 422.539062 233.632812 422.539062 230.585938 L 422.539062 183.554688 C 422.539062 180.664062 424.140625 179.140625 427.382812 179.023438 L 434.101562 179.023438 C 435.859375 179.023438 437.304688 180.039062 438.476562 181.992188 L 450.507812 214.179688 L 450.507812 183.554688 C 450.820312 180.429688 452.304688 178.867188 455.039062 178.867188 L 464.570312 178.867188 C 467.695312 178.867188 469.257812 180.429688 469.257812 183.554688 L 469.101562 230.585938 C 469.101562 233.632812 467.578125 235.117188 464.570312 235.117188 L 452.070312 235.117188 C 449.453125 235.117188 447.773438 234.140625 447.070312 232.148438 Z M 483.046875 178.867188 C 486.171875 178.867188 487.8125 180.429688 488.046875 183.554688 L 488.046875 216.523438 L 511.015625 216.523438 L 511.015625 183.554688 C 511.015625 180.429688 512.578125 178.867188 515.703125 178.867188 C 518.828125 178.867188 520.390625 180.429688 520.390625 183.554688 L 520.390625 230.585938 C 520.390625 233.632812 518.828125 235.117188 515.703125 235.117188 L 483.046875 235.117188 C 479.921875 235.117188 478.398438 233.632812 478.515625 230.585938 L 478.359375 183.554688 C 478.359375 180.429688 479.921875 178.867188 483.046875 178.867188 Z M 555.703125 200.585938 L 563.671875 181.523438 C 564.6875 179.765625 565.9375 178.867188 567.421875 178.867188 C 568.242188 178.867188 569.140625 179.101562 570.078125 179.492188 C 571.953125 180.546875 572.890625 181.914062 572.890625 183.554688 C 572.890625 184.296875 572.65625 185.117188 572.265625 186.054688 L 561.796875 210.742188 L 572.265625 227.929688 C 572.578125 228.867188 572.734375 229.726562 572.734375 230.429688 C 572.734375 232.109375 571.835938 233.476562 570.078125 234.492188 C 569.140625 234.921875 568.242188 235.117188 567.421875 235.117188 L 559.921875 235.117188 C 558.4375 235.117188 557.265625 234.257812 556.328125 232.460938 L 544.921875 213.867188 L 536.640625 232.617188 C 535.703125 234.414062 534.453125 235.273438 532.890625 235.273438 C 532.03125 235.273438 531.210938 235.039062 530.390625 234.492188 C 528.398438 233.554688 527.421875 232.265625 527.421875 230.585938 C 527.421875 229.765625 527.617188 228.945312 528.046875 228.085938 L 538.984375 204.179688 L 528.046875 186.367188 C 527.734375 185.546875 527.578125 184.726562 527.578125 183.867188 C 527.578125 182.226562 528.515625 180.898438 530.390625 179.960938 C 531.328125 179.453125 532.1875 179.179688 533.046875 179.179688 L 540.390625 179.023438 C 541.835938 179.023438 543.085938 179.921875 544.140625 181.679688 Z M 329.765625 147.34375 "/>
</svg>
